<?xml version="1.0" encoding="UTF-8" standalone="no"?>
<!-- Created with Inkscape (http://www.inkscape.org/) -->
<svg width="151.7498mm" height="48.972191mm" viewBox="0 0 168.61089 54.413545" version="1.1" id="svg1" inkscape:version="1.3 (0e150ed, 2023-07-21)" sodipodi:docname="cdi_inverted.svg" xmlns:inkscape="http://www.inkscape.org/namespaces/inkscape" xmlns:sodipodi="http://sodipodi.sourceforge.net/DTD/sodipodi-0.dtd" xmlns="http://www.w3.org/2000/svg" xmlns:svg="http://www.w3.org/2000/svg">
  <sodipodi:namedview id="namedview1" pagecolor="#ffffff" bordercolor="#000000" borderopacity="0.25" inkscape:showpageshadow="2" inkscape:pageopacity="0.0" inkscape:pagecheckerboard="true" inkscape:deskcolor="#d1d1d1" inkscape:document-units="mm" inkscape:clip-to-page="false" inkscape:zoom="1.2165702" inkscape:cx="500.99863" inkscape:cy="193.98799" inkscape:window-width="1920" inkscape:window-height="1027" inkscape:window-x="1920" inkscape:window-y="25" inkscape:window-maximized="1" inkscape:current-layer="layer1"/>
  <defs id="defs1"/>
  <g inkscape:label="Layer 1" inkscape:groupmode="layer" id="layer1" transform="translate(-12.88696,-17.711047)">
    <path id="path1" d="m 93.960799,71.47829 h 5.328904 V 18.432281 l -5.328904,-0.0051 V 71.47829" style="fill:#ffffff;fill-opacity:1;fill-rule:nonzero;stroke:none;stroke-width:0.0391975"/>
    <path id="path2" d="m 81.527734,44.99241 c 0,-21.872888 -6.283364,-26.565224 -16.941564,-26.565224 H 50.587948 v 4.772299 h 4.294873 10.976093 c 4.692728,0 10.101203,1.590636 10.101203,21.792925 0,20.043382 -4.931441,21.713589 -11.373947,21.713589 h -9.703349 -4.294873 v 4.772291 h 14.157364 c 16.145854,0 16.782422,-14.793845 16.782422,-26.48588" style="fill:#ffffff;fill-opacity:1;fill-rule:nonzero;stroke:none;stroke-width:0.0391975"/>
    <path id="path3" d="M 50.579325,47.332307 H 67.950494 V 42.573021 H 50.579325 v 4.759286" style="fill:#33bdf2;fill-opacity:1;fill-rule:nonzero;stroke:none;stroke-width:0.0391975"/>
    <path id="path4" d="M 50.579325,39.837308 H 67.950494 V 35.078022 H 50.579325 v 4.759286" style="fill:#86162c;fill-opacity:1;fill-rule:nonzero;stroke:none;stroke-width:0.0391975"/>
    <path id="path5" d="M 50.579325,32.342309 H 67.950494 V 27.582945 H 50.579325 v 4.759364" style="fill:#ba7d10;fill-opacity:1;fill-rule:nonzero;stroke:none;stroke-width:0.0391975"/>
    <path id="path6" d="M 50.579325,54.827305 H 67.950494 V 50.06802 H 50.579325 v 4.759285" style="fill:#00a880;fill-opacity:1;fill-rule:nonzero;stroke:none;stroke-width:0.0391975"/>
    <path id="path7" d="M 50.579325,62.322147 H 67.950494 V 57.562705 H 50.579325 v 4.759442" style="fill:#96a0a5;fill-opacity:1;fill-rule:nonzero;stroke:none;stroke-width:0.0391975"/>
    <path id="path8" d="m 38.147475,60.447721 c -1.985904,3.256923 -5.24267,6.672596 -9.373423,6.672596 -9.691119,0 -10.32655,-15.251798 -10.32655,-22.162675 0,-6.990331 0.635431,-22.241855 10.32655,-22.241855 4.0513,0 6.752088,2.939031 8.420296,6.275133 l 4.527746,-2.70071 c -2.780242,-5.083919 -6.910838,-8.579163 -12.948042,-8.579163 -13.821719,0 -15.887092,16.681645 -15.887092,27.246595 0,10.485496 2.065373,27.16695 15.887092,27.16695 6.037204,0 10.644442,-3.653959 13.742419,-8.65823 l -4.368996,-3.018641" style="fill:#ffffff;fill-opacity:1;fill-rule:nonzero;stroke:none;stroke-width:0.0391975"/>
    <path id="path9" d="m 112.66312,71.474771 h 2.48708 V 70.77825 h -0.86078 v -4.664212 h 0.86078 v -0.69607 h -2.48708 v 0.69607 h 0.84901 v 4.664212 h -0.84901 z m 4.53476,0 h 0.77768 v -3.499164 l -0.0698,-1.582443 0.0235,-0.02309 2.34989,5.104694 h 0.96386 v -6.056803 h -0.77767 v 3.510186 l 0.0698,1.570966 -0.0235,0.02358 -2.34989,-5.104729 h -0.96387 z m 6.2034,0 h 0.77768 v -2.848877 h 2.54666 v -0.696501 h -2.54666 v -1.815355 h 3.03506 v -0.69607 h -3.81274 z m 7.12141,-6.161499 c -1.00071,0 -2.15038,0.719313 -2.15038,3.138546 0,2.431007 1.17318,3.127684 2.15038,3.127684 2.11549,0 2.15037,-2.638789 2.15037,-3.127684 0,-2.442359 -1.18494,-3.138546 -2.15037,-3.138546 z m 0,0.731112 c 1.17514,0 1.33781,1.512162 1.33781,2.407434 0,0.88439 -0.16267,2.396251 -1.33781,2.396251 -1.17514,0 -1.33781,-1.511861 -1.33781,-2.396251 0,-0.895272 0.16267,-2.407434 1.33781,-2.407434 z m 4.75152,2.140851 v -2.071197 h 1.25668 c 0.6981,0 1.02383,0.407301 1.02383,0.954068 0,0.686897 -0.50016,1.117129 -1.25667,1.117129 z m -0.77768,3.289536 h 0.77768 v -2.593317 h 1.1285 l 1.54673,2.74429 0.67342,-0.406984 -1.48716,-2.453366 c 0.73221,-0.220168 1.23159,-0.952535 1.23159,-1.697288 0,-1.174711 -0.80081,-1.650138 -1.81328,-1.650138 h -2.05748 z m 7.78424,-1.709381 1.36094,-3.197797 h 0.0235 l 0.15091,4.907178 h 0.82432 l -0.2442,-6.056803 h -1.02188 l -1.09361,2.626235 -1.09361,-2.626235 h -1.02227 l -0.2442,6.056803 h 0.82432 l 0.1513,-4.907178 h 0.0231 z m 7.12141,0.05803 0.55817,1.802322 0.7671,-0.27913 -1.90618,-5.928646 h -0.99993 l -1.90617,5.928646 0.76709,0.27913 0.56954,-1.802322 z m -0.22068,-0.696215 h -1.72038 l 0.85999,-2.803854 z m 3.83822,2.347564 h 0.77729 v -5.360733 h 1.63963 v -0.69607 h -4.09144 v 0.69607 h 1.67452 z m 4.4301,0 h 2.48669 V 70.77825 h -0.86038 v -4.664212 h 0.86038 v -0.69607 h -2.48669 v 0.69607 h 0.84863 v 4.664212 h -0.84863 z m 6.37352,-6.161499 c -1.00071,0 -2.15037,0.719314 -2.15037,3.138546 0,2.431007 1.17318,3.127684 2.15037,3.127684 2.11549,0 2.15038,-2.638789 2.15038,-3.127684 0,-2.442359 -1.18455,-3.138546 -2.15038,-3.138546 z m 0,0.731112 c 1.17514,0 1.33781,1.512162 1.33781,2.407434 0,0.88439 -0.16267,2.396251 -1.33781,2.396251 -1.17514,0 -1.33781,-1.511861 -1.33781,-2.396251 0,-0.895272 0.16267,-2.407434 1.33781,-2.407434 z m 3.84606,5.430387 h 0.77768 v -3.499164 l -0.0698,-1.582443 0.0231,-0.02309 2.35028,5.104694 h 0.96387 v -6.056803 h -0.77768 v 3.510186 l 0.0694,1.570966 -0.0231,0.02358 -2.34989,-5.104729 h -0.96387 v 6.056803" style="fill:#ffffff;fill-opacity:1;fill-rule:nonzero;stroke:none;stroke-width:0.0391975"/>
    <path id="path10" d="m 111.80273,55.648925 h 0.62794 v 4.664349 h -0.62794 V 61.0095 h 2.0222 c 2.17468,0 2.49963,-1.208107 2.49963,-3.10413 0,-2.244804 -0.77768,-2.952672 -2.49963,-2.952672 h -2.0222 z m 1.40562,0 h 0.80277 c 0.96544,0 1.50087,0.476955 1.50087,2.337897 0,1.74476 -0.4539,2.326452 -1.47774,2.326452 h -0.8259 z m 7.59335,3.709536 0.55778,1.802303 0.7671,-0.279126 -1.90618,-5.92894 h -0.99993 l -1.90617,5.92894 0.76709,0.279126 0.56954,-1.802303 z m -0.22107,-0.69654 h -1.72038 l 0.86038,-2.803682 z m 3.83822,2.347579 h 0.77768 v -5.360575 h 1.63924 v -0.696227 h -4.09144 v 0.696227 h 1.67452 z m 6.52208,-1.651039 0.55778,1.802303 0.76748,-0.279126 -1.90656,-5.92894 h -0.99954 l -1.90657,5.92894 0.7671,0.279126 0.56993,-1.802303 z m -0.22108,-0.69654 h -1.72038 l 0.86039,-2.803682 z m 7.95436,1.337302 c -0.2442,0.232598 -0.59306,0.383862 -0.93055,0.383862 -0.61697,0 -1.07049,-0.430389 -1.07049,-1.047006 0,-0.534967 0.31397,-0.790967 0.72124,-1.070092 z m -1.09361,-2.698632 c -0.45391,-0.569893 -0.62834,-0.895272 -0.62834,-1.290932 0,-0.453672 0.26733,-0.802647 0.74475,-0.802647 0.54681,0 0.83805,0.372259 0.83805,0.8841 0,0.499925 -0.3375,0.767723 -0.71026,1.03505 z m -0.61658,0.407262 c -0.5813,0.407302 -1.10341,0.86066 -1.10341,1.640025 0,1.035207 0.82393,1.766201 1.8364,1.766201 0.53544,0 0.98896,-0.197242 1.39504,-0.510822 l 0.41824,0.568835 0.59306,-0.429958 -0.47704,-0.66283 c 0.34886,-0.476642 0.54681,-1.069818 0.61658,-1.65151 l -0.76749,-0.150793 c -0.0349,0.395033 -0.11641,0.802335 -0.33709,1.139473 L 137.99962,57.8697 c 0.91839,-0.616146 1.26647,-1.069662 1.26647,-1.813787 0,-0.871989 -0.62677,-1.580014 -1.53419,-1.580014 -0.93055,0 -1.51107,0.649974 -1.51107,1.580014 0,0.604504 0.23205,0.965239 0.56876,1.418597 l 0.17443,0.233343" style="fill:#ffffff;fill-opacity:1;fill-rule:nonzero;stroke:none;stroke-width:0.0391975"/>
    <path id="path11" d="m 112.92927,47.25497 v -2.071158 h 1.25667 c 0.69811,0 1.02384,0.407262 1.02384,0.954028 0,0.686584 -0.50055,1.11713 -1.25667,1.11713 z m -0.77768,3.289221 h 0.77768 v -2.592995 h 1.12849 l 1.54635,2.744298 0.6738,-0.407145 -1.48715,-2.453216 c 0.73221,-0.220487 1.23159,-0.95254 1.23159,-1.697293 0,-1.174514 -0.8012,-1.650255 -1.81328,-1.650255 h -2.05748 z m 5.76713,0 h 3.77786 v -0.696187 h -3.00018 v -2.15265 h 2.47689 v -0.696226 h -2.47689 v -1.815316 h 3.00018 v -0.696227 h -3.77786 z m 5.27325,-1.696508 c 0.18618,1.081774 0.89409,1.801244 2.02259,1.801244 1.11713,0 1.91793,-0.649973 1.91793,-1.801244 0,-0.628062 -0.29006,-1.116659 -0.83569,-1.419068 l -1.29156,-0.569893 c -0.46566,-0.209471 -0.81452,-0.37222 -0.81452,-0.942113 0,-0.546766 0.4884,-0.802647 0.98895,-0.802647 0.66322,0 0.9772,0.418786 1.11713,1.011962 l 0.7428,-0.220956 c -0.24381,-0.941799 -0.83609,-1.522119 -1.84817,-1.522119 -0.95446,0 -1.77839,0.568678 -1.77839,1.591773 0,1.139942 0.83569,1.372697 1.71999,1.74476 0.59345,0.244358 1.22178,0.430389 1.22178,1.174868 0,0.674629 -0.50016,1.023565 -1.14025,1.023565 -0.81453,0 -1.17475,-0.546766 -1.32566,-1.291088 z m 5.86277,1.696508 h 3.77747 v -0.696187 h -2.99979 v -2.15265 h 2.47689 v -0.696226 h -2.47689 v -1.815316 h 2.99979 v -0.696227 h -3.77747 z m 8.66736,-1.651195 0.55817,1.802498 0.7671,-0.279126 -1.90618,-5.928783 h -0.99993 l -1.90617,5.928783 0.76709,0.279126 0.56954,-1.802498 z m -0.22068,-0.696188 h -1.72038 l 0.85999,-2.803721 z m 3.90054,-0.941838 v -2.071158 h 1.25668 c 0.6981,0 1.02383,0.407262 1.02383,0.954028 0,0.686584 -0.50016,1.11713 -1.25667,1.11713 z m -0.77768,3.289221 h 0.77768 v -2.592995 h 1.1285 l 1.54673,2.744298 0.67381,-0.407145 -1.48715,-2.453216 c 0.7322,-0.220487 1.23119,-0.95254 1.23119,-1.697293 0,-1.174514 -0.80081,-1.650255 -1.81328,-1.650255 h -2.05748 z m 9.04523,-1.603414 c -0.36062,0.54661 -0.72124,0.977038 -1.43032,0.977038 -1.23276,0 -1.45345,-1.465635 -1.45345,-2.407748 0,-0.93047 0.2442,-2.396105 1.45345,-2.396105 0.59306,0 0.94191,0.430428 1.19748,0.918868 l 0.70948,-0.360617 c -0.43039,-0.801982 -0.97681,-1.289364 -1.91872,-1.289364 -0.9768,0 -2.25425,0.719471 -2.25425,3.13886 0,1.500364 0.557,3.127218 2.32402,3.127218 0.94192,0 1.52322,-0.498984 2.01162,-1.266237 z m 2.22798,1.603414 h 0.77768 v -2.848837 h 2.39654 v 2.848837 h 0.77768 v -6.056606 h -0.77768 v 2.511543 h -2.39654 v -2.511543 h -0.77768 v 6.056606" style="fill:#ffffff;fill-opacity:1;fill-rule:nonzero;stroke:none;stroke-width:0.0391975"/>
    <path id="path12" d="m 115.44065,38.475664 c -0.36022,0.54661 -0.72084,0.977038 -1.43032,0.977038 -1.23237,0 -1.45344,-1.465635 -1.45344,-2.407748 0,-0.930628 0.2442,-2.396106 1.45344,-2.396106 0.59306,0 0.94192,0.430232 1.19788,0.91883 l 0.70948,-0.360578 c -0.43039,-0.802021 -0.9768,-1.289364 -1.91872,-1.289364 -0.9768,0 -2.25464,0.719471 -2.25464,3.13886 0,1.500364 0.55738,3.127218 2.32441,3.127218 0.94192,0 1.52322,-0.499141 2.01162,-1.266276 z m 4.16945,-4.557928 c -1.00072,0 -2.15038,0.719471 -2.15038,3.13886 0,2.430835 1.17318,3.127218 2.15038,3.127218 2.11549,0 2.15037,-2.638778 2.15037,-3.127218 0,-2.442673 -1.18494,-3.13886 -2.15037,-3.13886 z m 0,0.731112 c 1.17514,0 1.33781,1.512006 1.33781,2.407748 0,0.883904 -0.16267,2.396106 -1.33781,2.396106 -1.17515,0 -1.33821,-1.512202 -1.33821,-2.396106 0,-0.895742 0.16306,-2.407748 1.33821,-2.407748 z m 5.9686,3.720865 1.36094,-3.197656 h 0.0235 l 0.15091,4.907021 h 0.82432 l -0.2442,-6.056763 h -1.02188 l -1.09361,2.626509 -1.09361,-2.626509 h -1.02227 l -0.2442,6.056763 h 0.82432 l 0.15131,-4.907021 h 0.0231 z m 4.99338,-0.895272 h 1.30292 c 0.84941,0 1.75488,-0.522111 1.75488,-1.801714 0,-0.884414 -0.54524,-1.650412 -1.95243,-1.650412 h -1.88305 v 6.056763 h 0.77768 z m 0,-0.696226 v -2.059713 h 1.07048 c 0.63971,0 1.17514,0.186189 1.17514,1.012394 0,0.698226 -0.40726,1.047319 -1.17514,1.047319 z m 4.76877,3.300863 h 3.77746 v -0.696226 h -2.99978 v -2.15265 h 2.4765 v -0.696188 h -2.4765 v -1.815512 h 2.99978 v -0.696187 h -3.77746 z m 7.03478,0 h 0.77768 v -5.360576 h 1.63924 v -0.696187 h -4.09144 v 0.696187 h 1.67452 z m 4.22079,0 h 3.77747 v -0.696226 h -2.99979 v -2.15265 h 2.4765 v -0.696188 h -2.4765 v -1.815512 h 2.99979 v -0.696187 h -3.77747 z m 5.37202,0 h 0.77768 v -3.499124 l -0.0698,-1.582326 0.0231,-0.02324 2.35029,5.104694 h 0.96387 v -6.056763 h -0.77768 v 3.510139 l 0.0694,1.571272 -0.0231,0.02328 -2.34989,-5.104694 h -0.96387 z m 9.43093,-1.603414 c -0.36023,0.54661 -0.72085,0.977038 -1.43032,0.977038 -1.23237,0 -1.45345,-1.465635 -1.45345,-2.407748 0,-0.930628 0.2442,-2.396106 1.45345,-2.396106 0.59306,0 0.94192,0.430232 1.19787,0.91883 l 0.70909,-0.360578 c -0.43,-0.802021 -0.97641,-1.289364 -1.91833,-1.289364 -0.9768,0 -2.25464,0.719471 -2.25464,3.13886 0,1.500364 0.55739,3.127218 2.32441,3.127218 0.94192,0 1.52322,-0.499141 2.01162,-1.266276 z m 2.37929,1.603414 h 3.77785 v -0.696226 h -3.00017 v -2.15265 h 2.47689 v -0.696188 h -2.47689 v -1.815512 h 3.00017 v -0.696187 h -3.77785 z m 9.13968,0 h 2.4867 v -0.696226 h -0.86039 v -4.66435 h 0.86039 v -0.696187 h -2.4867 v 0.696187 h 0.84863 v 4.66435 h -0.84863 z m 4.53477,0 h 0.77768 v -3.499124 l -0.0698,-1.582326 0.0231,-0.02324 2.35028,5.104694 h 0.96348 v -6.056763 h -0.77729 v 3.510139 l 0.0694,1.571272 -0.0231,0.02328 -2.35029,-5.104694 h -0.96347 v 6.056763" style="fill:#ffffff;fill-opacity:1;fill-rule:nonzero;stroke:none;stroke-width:0.0391975"/>
  </g>
</svg>