<?xml version="1.0" encoding="UTF-8" standalone="no"?>
<svg
   version="1.0"
   width="4139.9966"
   height="1236.2104"
   viewBox="0 0 4139.9966 1236.2104"
   id="svg2"
   xml:space="preserve"
   sodipodi:docname="Logo Digitalverbund Bayern.svg"
   inkscape:version="1.2.2 (732a01da63, 2022-12-09)"
   inkscape:export-filename="Logo Digitalverbund Bayern.jpg"
   inkscape:export-xdpi="96"
   inkscape:export-ydpi="96"
   xmlns:inkscape="http://www.inkscape.org/namespaces/inkscape"
   xmlns:sodipodi="http://sodipodi.sourceforge.net/DTD/sodipodi-0.dtd"
   xmlns="http://www.w3.org/2000/svg"
   xmlns:svg="http://www.w3.org/2000/svg"
   xmlns:rdf="http://www.w3.org/1999/02/22-rdf-syntax-ns#"
   xmlns:cc="http://creativecommons.org/ns#"
   xmlns:dc="http://purl.org/dc/elements/1.1/"><style
   id="style2177">
.measure-arrow
{
}
.measure-label
{

}
.measure-line
{
}</style><sodipodi:namedview
   id="namedview92"
   pagecolor="#ffffff"
   bordercolor="#000000"
   borderopacity="0.25"
   inkscape:showpageshadow="2"
   inkscape:pageopacity="0.0"
   inkscape:pagecheckerboard="0"
   inkscape:deskcolor="#d1d1d1"
   showgrid="false"
   showguides="true"
   inkscape:lockguides="false"
   inkscape:zoom="0.25"
   inkscape:cx="1556"
   inkscape:cy="344"
   inkscape:window-width="1920"
   inkscape:window-height="1017"
   inkscape:window-x="1912"
   inkscape:window-y="-8"
   inkscape:window-maximized="1"
   inkscape:current-layer="g3275" /><metadata
   id="metadata636"><rdf:RDF><cc:Work
       rdf:about=""><dc:format>image/svg+xml</dc:format><dc:type
         rdf:resource="http://purl.org/dc/dcmitype/StillImage" /></cc:Work></rdf:RDF></metadata><defs
   id="defs635"><inkscape:path-effect
   effect="measure_segments"
   linked_items=""
   id="path-effect5299"
   is_visible="true"
   lpeversion="1"
   unit="mm"
   orientation="parallel"
   coloropacity="#000000ff"
   fontbutton="Sans 10"
   precision="2"
   fix_overlaps="0"
   position="5"
   text_top_bottom="0"
   helpline_distance="0"
   helpline_overlap="2"
   line_width="0.25"
   scale="1"
   format="{measure}{unit}"
   blacklist=""
   active_projection="false"
   whitelist="false"
   showindex="false"
   arrows_outside="false"
   flip_side="false"
   scale_sensitive="true"
   local_locale="true"
   rotate_anotation="true"
   hide_back="true"
   hide_arrows="false"
   smallx100="false"
   distance_projection="20"
   angle_projection="0"
   avoid_overlapping="true"
   onbbox="false"
   bboxonly="false"
   centers="false"
   maxmin="false"
   helpdata="&lt;b&gt;&lt;big&gt;Allgemeines&lt;/big&gt;&lt;/b&gt; Der Effekt zeichnet und positioniert Bemaßungslinien und Beschriftungen.  &lt;b&gt;&lt;big&gt;Projektion&lt;/big&gt;&lt;/b&gt; Zeichnet eine Linie mit Bemaßungen für die gewählten Objekte.  &lt;b&gt;&lt;big&gt;Optionen&lt;/big&gt;&lt;/b&gt; Optionen für Farbe, Genauigkeit, Formatierung der Beschriftungen und die Anzeige  &lt;b&gt;&lt;big&gt;Tipps&lt;/big&gt;&lt;/b&gt; &lt;b&gt;&lt;i&gt;Benutzerdefinierter Stil:&lt;/i&gt;&lt;/b&gt; Um den Stil noch weiter anzupassen, kann der XML-Editor verwendet werden. Dort kann die Klasse oder ID des Objektes bestimmt werden, um dieser dann im Stildialog einen neuen Stil zuzuweisen. &lt;b&gt;&lt;i&gt;Ausschlussliste:&lt;/i&gt;&lt;/b&gt; Die Liste ermöglicht es, Bemaßungen für einige Segmente oder Projektionsschritte nicht anzuzeigen. &lt;b&gt;&lt;i&gt;Mehrere Bemaßungs-LPEs:&lt;/i&gt;&lt;/b&gt; Auf dasselbe Objekt angewendet können so mittels Ausschlusslisten unterschiedlich ausgerichtete Beschriftungen oder weitere Projektionen gezeichnet werden. &lt;b&gt;&lt;i&gt;Standardwerte setzen:&lt;/i&gt;&lt;/b&gt; Unten können für jeden LPE Standardwerte festgelegt werden." /><inkscape:path-effect
   effect="measure_segments"
   linked_items=""
   id="path-effect2175"
   is_visible="true"
   lpeversion="1"
   unit="mm"
   orientation="parallel"
   coloropacity="#000000ff"
   fontbutton="Sans 10"
   precision="2"
   fix_overlaps="0"
   position="5"
   text_top_bottom="0"
   helpline_distance="0"
   helpline_overlap="2"
   line_width="0.25"
   scale="1"
   format="{measure}{unit}"
   blacklist=""
   active_projection="false"
   whitelist="false"
   showindex="false"
   arrows_outside="false"
   flip_side="false"
   scale_sensitive="true"
   local_locale="true"
   rotate_anotation="true"
   hide_back="true"
   hide_arrows="false"
   smallx100="false"
   distance_projection="20"
   angle_projection="0"
   avoid_overlapping="true"
   onbbox="false"
   bboxonly="false"
   centers="false"
   maxmin="false"
   helpdata="&lt;b&gt;&lt;big&gt;Allgemeines&lt;/big&gt;&lt;/b&gt; Der Effekt zeichnet und positioniert Bemaßungslinien und Beschriftungen.  &lt;b&gt;&lt;big&gt;Projektion&lt;/big&gt;&lt;/b&gt; Zeichnet eine Linie mit Bemaßungen für die gewählten Objekte.  &lt;b&gt;&lt;big&gt;Optionen&lt;/big&gt;&lt;/b&gt; Optionen für Farbe, Genauigkeit, Formatierung der Beschriftungen und die Anzeige  &lt;b&gt;&lt;big&gt;Tipps&lt;/big&gt;&lt;/b&gt; &lt;b&gt;&lt;i&gt;Benutzerdefinierter Stil:&lt;/i&gt;&lt;/b&gt; Um den Stil noch weiter anzupassen, kann der XML-Editor verwendet werden. Dort kann die Klasse oder ID des Objektes bestimmt werden, um dieser dann im Stildialog einen neuen Stil zuzuweisen. &lt;b&gt;&lt;i&gt;Ausschlussliste:&lt;/i&gt;&lt;/b&gt; Die Liste ermöglicht es, Bemaßungen für einige Segmente oder Projektionsschritte nicht anzuzeigen. &lt;b&gt;&lt;i&gt;Mehrere Bemaßungs-LPEs:&lt;/i&gt;&lt;/b&gt; Auf dasselbe Objekt angewendet können so mittels Ausschlusslisten unterschiedlich ausgerichtete Beschriftungen oder weitere Projektionen gezeichnet werden. &lt;b&gt;&lt;i&gt;Standardwerte setzen:&lt;/i&gt;&lt;/b&gt; Unten können für jeden LPE Standardwerte festgelegt werden." /><rect
   x="2494"
   y="570"
   width="1022"
   height="412"
   id="rect1425" /><rect
   x="2394"
   y="566"
   width="792"
   height="406"
   id="rect1419" />
			
			
			
			
			
			
			
			
			
			
			
			
			
			
			
			
			
			
			
			
			
			
			
			
			
			
			
			
			
			
			
			
			
			
			
			
			
			
			
			
			
			
			
			
			
			
			
			
			
			
			
			
			
			
			
			
			
			
			
			
			
			
			
			
			
			
			
			
			
			
			
			
			
			
			
			
			
			
			
			
			
			
			
			
			
			
			
			
			
			
			
			
			
			
			
			
			
			
		
			
			
			
			
			
			
		
				
				
			
				
				
			
			
			
		<filter
   style="color-interpolation-filters:sRGB"
   id="filter2809"
   x="0"
   y="0"
   width="1"
   height="1"><feColorMatrix
     values="-1 0 0 0 1 0 -1 0 0 1 0 0 -1 0 1 0.21 0.72 0.07 1 0 "
     result="color2"
     id="feColorMatrix2807" /></filter></defs>
	
		
		
		
		
	



































































































































































































































































































































































<g
   id="layer1"
   transform="translate(-29.191964,-15.591257)"
   inkscape:label="Text Schwarz"
   style="display:none"
   sodipodi:insensitive="true"><text
     xml:space="preserve"
     style="font-size:353.239px;font-family:'DejaVu Sans';-inkscape-font-specification:'DejaVu Sans';display:inline;fill:#000000;fill-opacity:1;stroke-width:1.03894"
     x="1468.5576"
     y="537.14771"
     id="text328"
     inkscape:label="Digitalverbund"
     sodipodi:insensitive="true"><tspan
       id="tspan326"
       x="1468.5576"
       y="537.14771"
       style="stroke-width:1.03894">Digitalverbund</tspan></text><text
     xml:space="preserve"
     style="font-size:353.239px;font-family:'DejaVu Sans';-inkscape-font-specification:'DejaVu Sans';display:inline;fill:#000000;fill-opacity:1;stroke-width:1.03894"
     x="1468.5576"
     y="925.14764"
     id="text984"
     inkscape:label="Bayern"
     sodipodi:insensitive="true"><tspan
       id="tspan982"
       x="1468.5576"
       y="925.14764"
       style="stroke-width:1.03894">Bayern</tspan></text></g><g
   id="g2000"
   transform="translate(-29.191964,-15.591257)"
   inkscape:label="Text Blau"
   style="display:none"
   sodipodi:insensitive="true"><text
     xml:space="preserve"
     style="font-size:353.239px;font-family:'DejaVu Sans';-inkscape-font-specification:'DejaVu Sans';display:inline;fill:#0099d1;fill-opacity:1;stroke-width:1.03894"
     x="1468.5576"
     y="537.14771"
     id="text1994"
     inkscape:label="Digitalverbund"
     sodipodi:insensitive="true"><tspan
       id="tspan1992"
       x="1468.5576"
       y="537.14771"
       style="fill:#0099d1;fill-opacity:1;stroke-width:1.03894">Digitalverbund</tspan></text><text
     xml:space="preserve"
     style="font-size:353.239px;font-family:'DejaVu Sans';-inkscape-font-specification:'DejaVu Sans';display:inline;fill:#0099d1;fill-opacity:1;stroke-width:1.03894"
     x="1468.5576"
     y="925.14764"
     id="text1998"
     inkscape:label="Bayern"
     sodipodi:insensitive="true"><tspan
       id="tspan1996"
       x="1468.5576"
       y="925.14764"
       style="fill:#0099d1;fill-opacity:1;stroke-width:1.03894">Bayern</tspan></text></g><g
   id="g2057"
   transform="translate(-29.191964,-15.591257)"
   inkscape:label="Text Weiß"
   style="display:inline"
   sodipodi:insensitive="true"><text
     xml:space="preserve"
     style="font-size:353.239px;font-family:'DejaVu Sans';-inkscape-font-specification:'DejaVu Sans';display:inline;fill:#ffffff;fill-opacity:1;stroke-width:1.03894"
     x="1468.5576"
     y="537.14771"
     id="text2051"
     inkscape:label="Digitalverbund"
     sodipodi:insensitive="true"><tspan
       id="tspan2049"
       x="1468.5576"
       y="537.14771"
       style="fill:#ffffff;stroke-width:1.03894">Digitalverbund</tspan></text><text
     xml:space="preserve"
     style="font-size:353.239px;font-family:'DejaVu Sans';-inkscape-font-specification:'DejaVu Sans';display:inline;fill:#ffffff;fill-opacity:1;stroke-width:1.03894"
     x="1468.5576"
     y="925.14764"
     id="text2055"
     inkscape:label="Bayern"
     sodipodi:insensitive="true"><tspan
       id="tspan2053"
       x="1468.5576"
       y="925.14764"
       style="fill:#ffffff;stroke-width:1.03894">Bayern</tspan></text></g><path
   id="polyline632"
   style="display:inline;fill:#0099d1;fill-opacity:1;stroke:#000000;stroke-width:2.08265;stroke-miterlimit:3.86369"
   d="m 259.29269,1076.2642 4.23301,0.3498 1.76594,-3.1732 3.5256,0.7045 -0.70225,-4.5862 11.98848,-2.113 2.81708,2.8216 5.64581,-1.7651 1.76325,-2.4682 3.17402,3.8794 11.63782,-13.7598 -1.40899,-1.4081 9.52029,-8.818 10.5795,-0.3516 3.17135,3.8835 5.99558,1.4103 3.17672,1.7632 h 8.1131 l 6.69874,-9.1682 4.58481,-1.4112 10.22702,1.4112 3.87987,14.106 4.23592,-8.8158 8.11131,-3.8821 2.11124,-9.5261 -5.29244,-5.2898 -0.70404,-6.348 1.0592,-5.2849 -11.99028,-10.5794 5.99559,-5.9943 h 5.64222 l 4.5848,-3.87987 -1.06099,-2.818 -4.93728,-6.70504 -2.11303,-8.8167 -4.23054,3.52702 -1.41168,-4.22968 h 3.5265 l 3.17425,-3.5283 0.70652,-13.04947 v -1.05696 l 0.35067,-6.34806 -5.99917,-6.70097 1.05741,-4.58302 3.88457,-1.41347 2.1155,-0.35202 1.05921,-9.87277 3.17402,-4.23458 0.35247,-2.11348 -0.70673,-1.41301 2.11662,-13.39972 -0.35157,-10.22748 -0.002,-1.40988 -0.70494,-3.17313 -6.35074,-7.40816 -0.34978,-0.7036 -3.17404,-10.93466 -2.46729,-11.63736 0.35157,-2.46819 v -0.35336 l -4.93638,-9.87277 0.70404,-6.70143 -1.0583,-6.34447 0.70404,-3.17896 -6.34447,-8.11265 -6.34986,-12.33737 -2.82155,-2.82515 -4.93705,-4.93638 -1.41011,-5.28975 16.22172,-17.28092 -2.11572,-9.15348 5.64311,0.70315 10.57681,-7.40502 7.05569,7.05345 7.75436,-1.41527 8.11309,-8.1113 3.52651,-2.10945 1.76773,-0.004 3.52561,-1.0601 -1.05831,-2.81842 -0.70584,-1.7628 -0.70674,-1.76325 7.76153,-3.17537 3.17313,1.06054 7.75795,-2.12199 -2.46819,-4.93325 1.40898,-4.58301 1.76235,-2.11796 -2.11303,-8.81625 -2.11662,-2.47357 v -4.9346 l 4.93729,-0.34978 0.70135,-1.40987 -6.34268,-8.81625 -8.114,-7.75974 -0.70404,-7.76152 3.17313,-2.11304 0.005,-3.17313 10.57859,4.23144 0.70316,-2.11483 h 3.87986 l 3.17403,10.22614 2.46819,1.76325 6.34806,-4.58481 0.70584,-7.05345 3.52291,-3.87941 5.29513,-0.35338 1.75608,2.4682 -6.34716,10.93466 12.34723,-3.5265 5.99469,-6.70143 -1.0601,-2.11482 -7.40457,-11.28623 2.11841,-2.46819 -9.17321,-2.82336 -1.05472,-10.57995 1.76505,-1.05831 0.35336,-7.40412 2.81976,-2.46864 1.40989,-1.05786 v -7.40457 l -4.93818,-1.76505 0.70853,-2.82155 5.28975,-2.82157 v -7.0512 l -1.40988,-1.0637 1.40988,-4.57941 -6.70232,-5.99111 6.70232,-2.47357 -2.11841,-10.22614 -5.64222,-4.93862 -0.35224,-3.17269 -3.17426,0.70316 -0.35695,-1.05652 2.47267,-3.17313 -7.40636,-3.17852 -2.11393,-5.28616 -4.23234,-0.35336 -0.70404,-8.11131 -3.88077,-1.41213 -2.82246,2.46864 -1.0583,-1.05651 -13.04859,-4.93818 -0.35247,-5.99469 1.76325,-0.70494 -3.17403,-10.58129 -10.5795,-1.4081 11.99028,-10.93466 -2.1155,-6.69963 -3.87919,-3.17313 -11.28534,-8.46467 -2.11639,1.40942 -9.52142,-5.99423 -0.35337,-3.88166 -1.76324,-13.75263 2.11661,-1.05652 -3.17403,-2.82335 1.76325,-5.64671 2.46819,4.23323 4.23234,-6.70187 -4.23234,-4.93638 -0.70471,-3.1709 0.34955,-7.75614 -2.11303,1.05651 -3.5274,-2.46819 1.05563,-17.98586 9.87634,-1.40988 1.05921,-2.4682 -2.11482,-1.76504 -2.82156,-8.11534 -4.93997,-16.57061 -3.88054,-4.58615 2.11459,-5.29154 -4.5848,-12.69813 -1.40629,-1.75788 -4.93549,-0.35135 -4.93639,5.29155 1.41258,1.41347 3.52022,2.11123 -9.52029,11.98939 -10.22703,0.70673 0.70517,-1.05831 -3.87651,0.35158 h -6.70322 l -3.17133,-3.17314 2.11303,-5.64311 0.35247,-9.87658 -1.05921,-5.28975 -4.93549,-2.81977 2.82066,-6.7012 -2.11841,-1.4101 -5.99289,2.46999 -3.5265,10.93107 -10.5795,-3.17471 1.76325,-1.76168 1.76325,-1.06368 2.82155,-3.52628 7.053,-13.04769 -1.41077,-4.58683 -8.4593,-12.33736 -1.05921,-1.76505 3.52382,-5.28975 -0.35158,-0.70472 -3.17403,-8.81625 -5.6458,-3.87807 0.35426,-3.52672 -10.22703,7.0512 -5.64311,8.11311 -3.5274,-13.75623 -7.75435,3.5283 v 7.75637 l -3.17404,1.76145 -8.1131,-4.93301 1.40899,-4.94176 2.11661,-2.11483 0.35068,-9.16782 -1.05472,-1.76146 2.81708,-3.5265 -0.3453,-8.81961 -20.10517,4.22965 2.11482,9.88352 -1.76325,1.76124 -10.5786,-6.70144 -1.39733,-7.76488 -5.6429,-0.34619 -4.23614,5.99626 -3.52202,-1.05988 -2.82156,-5.28997 -5.99558,3.52134 -3.87808,2.47513 -2.82245,-2.47513 -3.87875,1.76863 -9.87479,1.40988 1.75877,8.46625 -5.9911,1.05494 5.99559,3.17492 6.34806,-0.35336 4.93727,1.41324 -6.70501,3.17336 2.82245,5.2893 5.64604,-0.35134 0.70471,-9.16783 4.93729,3.52493 2.82178,4.93638 v 5.64133 l -3.17426,3.88121 -2.11459,2.46662 3.1729,2.82156 1.76348,1.76527 -2.82179,4.58279 -5.28885,1.06009 -3.52291,-4.93996 -5.29334,4.23346 -7.40457,-3.5265 -1.41325,-0.3536 -3.87919,5.64312 -3.52739,1.41168 -2.82067,14.10241 h -2.11303 l -2.11482,4.23503 h -2.11572 l -1.41504,0.70516 -6.70524,1.76482 -20.45496,-1.76482 -8.10682,-8.46467 v -5.64334 l 8.1113,-7.75615 0.3536,-6.70143 -3.17425,-2.82536 v -6.7012 l 3.88076,-2.81798 4.93549,-1.05651 v -2.1164 l -1.41079,-2.82155 2.82157,-0.35337 1.05741,-3.87651 0.70584,-1.76504 1.76324,-3.87785 -3.87806,-3.52672 -0.70406,-0.70517 -4.93996,-1.05988 1.76325,-5.28975 4.58481,-2.82156 -0.35247,-4.23121 -5.28976,-1.06234 -3.17402,2.472 -1.76325,-3.17314 v -16.57396 l -4.58929,5.28795 -6.34627,-4.9384 1.76325,-3.1747 -2.10855,-2.11302 3.52292,-1.41011 -2.82044,-4.23324 -3.17425,-24.68527 1.06099,-1.76527 -2.47357,-12.6941 5.64133,-6.35187 -2.11483,-5.6393 -1.40988,-5.99492 -8.46468,0.70516 -0.35247,-4.9384 1.41078,-2.46796 0.70494,-1.76348 1.75967,-0.35135 1.06189,-9.87635 5.99559,-4.93997 1.40899,-0.34978 7.76174,-1.76146 10.93085,-2.11863 5.28976,4.23346 -1.05742,7.40458 3.8792,-2.4682 7.05277,-9.87276 -1.41437,-3.17515 6.35255,-2.46797 5.29423,-0.3518 5.28527,2.81977 4.5848,-1.05831 5.9947,2.81976 2.82155,-2.11303 11.63782,3.17336 6.70053,14.81251 3.52739,1.05651 9.16873,-2.11303 0.35247,-0.004 10.92299,-1.06212 1.4063,-3.87426 -2.46909,-13.75466 5.28975,-5.28974 -0.70494,-2.46976 -5.27361,-0.70517 -0.70404,-7.75637 3.15632,-0.35493 0.35224,-1.76146 -3.15878,-4.58683 -1.75877,-4.93414 1.75877,-5.64334 7.74539,4.58324 8.11131,-0.35337 0.3509,-0.35717 4.58458,3.17492 5.64401,-1.75787 0.35157,-0.35337 9.5203,-2.82133 -5.28886,-6.34829 2.11684,-4.23144 4.58369,-2.11662 4.23234,-1.05628 2.46909,-1.06033 2.11572,-3.88323 2.11572,-1.05315 h 1.0601 l 4.23324,-5.28952 0.34978,-4.93819 -1.05831,-7.40502 -2.11549,-3.17807 4.58548,-10.58151 v -10.57551 l 1.76234,-2.821331 9.87546,1.059871 0.70404,1.05652 3.52382,4.58683 7.40726,3.17291 9.16804,-2.46797 8.11378,-5.64849 10.93018,-8.464913 2.47446,-5.637504 6.69784,-6.348059 2.11393,-7.404573 0.3518,-4.936383 5.6411,-4.233459 7.05748,-10.225907 4.58302,-2.11841 4.23323,7.407934 2.46909,-3.174924 4.23234,2.114819 1.76325,-2.114819 5.64222,-1.058315 4.58481,8.463108 16.92935,12.694098 5.28796,-0.349551 3.5238,3.879638 1.41347,7.757715 3.88167,5.994917 1.05651,3.524935 7.053,2.112799 -3.87987,7.060404 1.76326,3.17291 9.87545,0.35337 2.82066,-2.46999 2.11841,7.40637 8.11131,4.93638 -1.0601,2.82178 4.93817,2.82156 4.23324,-5.28975 4.23323,2.46819 0.35158,5.64289 5.28795,2.11685 4.93818,0.34776 -1.05652,4.94176 1.40989,12.69432 -2.11841,3.8801 4.58301,7.05479 -2.46819,1.76146 2.11841,5.99626 10.5813,1.41189 1.05651,0.70316 13.04948,5.64311 2.11482,-2.82178 -0.70493,-5.6429 0.70314,-7.40479 8.46647,3.52829 2.46819,-3.52829 4.22965,-0.35157 5.28975,4.93458 5.99828,-4.93458 -1.40809,-8.46468 -0.35337,-0.35157 -6.34806,-0.002 -22.57067,-16.57418 1.40988,-8.11288 3.87987,-4.58302 7.75435,-3.17493 2.46998,-4.58301 3.5283,2.1146 6.34806,-4.93638 5.99468,1.75966 4.23324,-2.11303 7.40279,2.4664 1.76144,-0.70494 3.5283,-1.40428 2.11662,2.11303 9.17141,13.04209 1.76504,-2.46797 9.16962,-2.11505 -0.70673,3.52672 2.82155,1.40809 8.10952,-2.81617 2.11482,-3.8783 4.93997,-0.70494 5.64312,4.58324 4.23144,9.87634 -5.64491,4.58279 v 3.52651 l 2.46819,3.87987 9.16961,2.82178 -2.11661,4.23121 3.17672,-0.70471 1.76146,-6.69986 11.28623,7.75637 3.17492,-2.46303 -2.46819,-6.70479 1.76326,-13.04769 v -2.11684 l 3.5247,0.70493 1.41168,-8.46467 -3.17313,-11.63758 -0.35337,-8.464677 -3.5283,-12.694327 -1.76145,-7.758166 4.23323,-0.349551 7.05121,-1.063687 4.5866,-2.471782 5.28796,-8.814459 -0.35157,-2.113249 5.99468,-1.063467 11.63781,2.475144 3.88167,5.293556 -4.23683,4.936382 -0.34978,12.335573 0.70494,2.471562 4.58302,1.411677 1.0601,4.584801 6.70142,-2.825364 2.46819,5.645357 0.35338,7.054797 6.34806,-0.35158 3.5247,5.99469 7.05479,-3.88009 1.40809,-3.5265 6.70322,0.35158 4.23323,3.88166 3.52651,-1.05988 5.64132,-1.40988 4.23144,-0.35158 2.46819,-0.70516 1.76504,-2.11662 2.46819,1.76146 4.22965,-2.82156 0.35337,-0.35158 h 5.99469 l -2.46819,-3.174921 9.52298,-1.408095 5.64312,7.404576 0.70494,2.11685 2.46819,-1.41191 5.99469,-2.11482 4.23145,-5.289523 4.5866,-0.705173 3.87987,-3.174925 5.64311,2.821563 1.40809,7.757938 2.46998,-1.76302 4.58481,2.82133 -0.7139,3.87987 1.06547,4.93302 -2.11661,4.22964 11.98938,3.5283 1.0601,3.87986 h 13.39926 l 1.76684,3.53188 5.63954,3.52628 -1.40989,3.16798 4.58481,7.75951 -10.22792,8.11332 8.1113,6.70098 5.29334,-1.05786 2.11483,5.28952 9.52118,10.22995 3.17493,8.46467 -4.23323,9.16783 1.76145,7.40434 1.76504,4.9402 5.64313,2.46281 7.40457,5.29132 -1.05651,6.70523 12.34274,1.4081 11.63781,11.99094 12.69432,5.64312 9.87636,3.17336 7.05479,5.64289 -5.9947,8.46311 1.75967,4.59198 14.1078,3.52651 2.46819,4.93234 -10.93108,25.03729 -2.82156,-1.41323 -2.82156,2.82133 -0.70494,16.57418 -14.1078,9.87994 0.70675,4.58324 8.81625,13.75599 9.86917,5.2846 h 8.1131 l 1.0601,20.10428 8.46468,2.46976 3.5265,20.80743 4.58481,5.64132 -1.05831,1.41369 3.17493,2.11281 8.81625,1.41346 1.0601,14.4596 -2.12021,3.17313 3.5283,2.4682 2.11482,8.1113 -0.35157,3.5265 13.40285,4.57898 9.87456,8.11176 0.70494,6.70501 6.34806,9.87635 20.80562,3.87628 2.46814,-0.34619 -2.11477,-5.99694 8.81617,2.11348 5.9965,-0.35202 6.3481,3.17358 8.1114,9.16423 4.9345,0.35338 13.0512,20.10203 2.4682,6.70322 4.5831,2.11348 -0.3516,5.29468 14.1078,9.52164 v 10.22613 l 15.5159,9.52075 10.2261,-2.82112 14.4594,10.22972 12.6979,14.81095 1.0565,9.5158 1.0583,10.22973 3.5283,2.46774 3.5265,2.47222 6.6978,3.52471 6.7033,4.93997 4.2333,1.0583 -0.3553,-2.11347 -0.3515,-7.40592 16.5723,-1.40988 15.5196,19.74552 6.3498,10.5795 7.7562,-0.70494 4.2331,-0.35157 2.8216,-0.70494 7.4028,16.22082 7.0566,4.58481 4.9346,7.75794 -2.1149,5.64312 8.1114,2.82155 -2.1149,4.23324 -1.765,9.5212 -4.9364,6.69918 5.2897,5.99513 0.705,11.99118 2.4682,14.106 -4.583,15.16431 -6.348,6.34806 -4.2333,-2.11483 -2.1148,7.053 1.0583,4.93818 -4.2333,5.99648 -14.8109,-5.99648 -2.1166,-4.23323 -13.7526,-7.40458 -4.2333,3.5265 -6.348,-3.5265 -9.1697,-6.70546 -4.2314,9.52299 -5.6431,3.87672 -6.3463,2.122 4.9347,12.34409 -2.1149,6.34672 -3.8799,12.3423 3.1732,8.81625 -3.5266,8.8167 -1.0564,9.15167 -3.5266,4.23145 -15.5177,16.58136 -14.8109,10.22434 -11.2844,0.70674 -8.4647,0.34978 -10.9311,6.00007 -6.7032,0.35112 -3.8781,0.35337 -15.5159,9.16827 -9.8763,13.75084 -4.9364,2.82111 -16.576,2.11347 -3.8799,8.11131 -5.2969,8.81805 -12.33551,9.8777 h -3.5265 l -1.76504,4.93862 2.47178,12.69791 11.63781,10.92928 10.93106,9.87411 5.6431,17.28092 10.5777,2.82202 11.2881,17.63429 5.643,10.57949 3.8782,8.11094 -5.6432,9.16954 -8.4647,13.75492 -2.4682,3.526 3.175,-0.3511 0.7049,2.11257 -1.765,5.997 -4.9364,3.5225 -2.1149,4.239 4.9364,4.9346 14.4594,0.7063 2.4682,-2.118 4.5866,-3.5211 7.0513,4.231 7.7597,7.4032 -0.3516,4.9328 2.8215,8.1163 2.1149,7.0534 -7.4046,9.5172 -1.765,37.7386 -9.1697,9.8727 -23.2756,-10.2261 -7.053,-8.4678 -17.9859,-8.8163 -4.9399,-6.348 -1.05652,-3.5266 2.82152,-7.401 7.053,-4.2372 -5.9965,-4.9328 -9.87272,-8.1167 2.82156,-4.9323 -17.98586,-4.9364 -20.80742,3.8727 -6.34806,14.1127 -17.6325,3.1735 -14.1078,-16.5759 -0.002,-4.9386 -0.34978,-2.1126 -6.70501,0.7013 -10.92928,3.5261 -5.99648,-2.1148 -0.35158,-2.1185 -19.04238,6.7001 -3.17314,-4.9333 4.93639,-13.3987 -1.76325,-3.5269 -7.05479,8.8167 -9.52299,6.348 h -4.93459 l 0.35158,3.5247 9.16961,19.3971 1.76146,8.113 -5.64312,2.1135 -23.62718,-1.4102 -4.93638,-2.8198 -8.81625,2.8198 -3.52651,-4.5844 -17.28092,4.5844 -9.16962,1.7632 -8.81266,2.4686 -2.47178,7.0548 -14.80915,-2.822 -34.56364,0.3538 -6.34806,4.2297 -3.87987,8.4659 0.35337,10.5801 -3.52829,3.8834 -15.51589,3.5211 -11.6378,-1.0565 -3.5265,-2.8216 -7.05479,7.7562 -5.9947,7.7579 5.9947,1.7651 2.82155,7.7579 -19.39396,-1.4103 -14.81272,17.9823 -11.99118,0.7049 7.40457,-10.9306 -1.40809,-1.4099 -9.87635,-0.3498 -10.22792,4.2315 -7.0548,3.5247 -2.11483,4.9341 -4.93817,1.4139 -28.212,-0.7049 -2.82156,-4.9346 3.87987,-3.1754 -0.35157,-3.1726 -11.99118,-13.0607 v -4.9347 l -11.99296,1.4122 -2.82157,-2.1148 1.41168,-6.3481 9.87636,-4.9333 h -3.17673 l -4.5848,-6.3475 -7.75795,1.0601 -17.28092,6.6996 -20.10249,-12.3433 -0.34978,-2.4677 h -13.04771 l -8.46288,-3.8834 -5.99649,12.3427 -11.28444,-0.3534 -8.1131,-1.4116 -8.11131,-5.2903 6.34805,-10.2202 -2.11482,-0.7103 -8.46647,1.0601 -1.76503,2.4717 4.93638,7.7562 -4.58123,17.6325 2.82156,6.3463 5.99649,2.4717 1.41168,15.871 -19.75541,21.1536 -0.35247,4.5867 -14.45936,17.6325 -19.39664,9.8799 -15.87015,2.4682 1.05831,-8.8167 13.40105,-29.6236 -2.11572,-2.4696 -10.57591,-1.0623 -9.52209,8.8162 -9.52006,4.2373 -4.24063,-13.4033 5.29243,-11.9889 -4.93728,-10.2262 -6.34357,-2.8215 -2.82066,-7.41 -8.11311,2.1131 -3.5247,-1.758 -7.0548,-11.9916 0.70495,-8.4665 -10.5795,5.6454 -3.17403,-3.1736 -7.0539,-2.8175 -1.0619,6.3458 -13.39657,-6.7032 2.4682,-4.2292 -0.70943,-9.1696 -4.93369,-2.8215 h -5.9947 l -8.45929,14.4557 -2.47178,6.705 m -4.34512,-5.9128 0.79642,0.9614 m -25.76677,-11.9596 10.22812,8.3003 m -10.16724,-8.4422 10.18754,8.4422 m -10.04548,-8.5031 10.08607,8.5436 m 14.99246,3.0151 3.43757,4.9336 m -18.53716,-7.8834 0.56763,0.09 m -0.62598,-0.1218 0.74798,0.1167 m -0.7692,-0.138 0.74268,-0.01 m -0.67902,0.01 0.7639,0.08 m -0.70024,-0.042 0.85939,0.074 m 17.76077,7.5487 -3.31025,-4.5835 m 0.25464,-0.1697 -15.27809,-2.801 m -10.27027,-8.5727 10.18539,8.6576 m 0.0849,-0.5093 15.53272,3.2254 m 3.73464,4.7532 -4.15903,-5.0079 m -24.95421,-11.4585 10.27027,8.7425"
   inkscape:label="Bayern Umriss"
   sodipodi:insensitive="true" /><g
   inkscape:groupmode="layer"
   id="layer4"
   inkscape:label="Karte"
   transform="matrix(0.91839669,0,0,0.91839669,125.64675,51.64675)"
   inkscape:highlight-color="#ffffff"
   sodipodi:insensitive="true"><g
     id="g2727"
     style="display:inline;filter:url(#filter2809)"
     inkscape:label="Bayern Karte"
     transform="translate(-29.191964,4.5683059e-5)"
     sodipodi:insensitive="true"><g
       id="g456"
       inkscape:label="Punkte"
       style="display:inline"
       sodipodi:insensitive="true"><circle
         style="fill:#000000"
         id="path1470"
         cx="78.1353"
         cy="232.28459"
         r="13.788582" /><circle
         style="fill:#000000"
         id="path1470-8"
         cx="310"
         cy="211"
         r="13.788582" /><circle
         style="fill:#000000"
         id="path1470-6"
         cx="290"
         cy="288"
         r="13.788582" /><circle
         style="fill:#000000"
         id="path1470-89"
         cx="509"
         cy="136"
         r="13.788582" /><circle
         style="fill:#000000"
         id="path1470-0"
         cx="723"
         cy="103"
         r="13.788582" /><circle
         style="fill:#000000"
         id="path1470-1"
         cx="485"
         cy="268"
         r="13.788582" /><circle
         style="fill:#000000"
         id="path1470-9"
         cx="660"
         cy="241"
         r="13.788582" /><circle
         style="fill:#000000"
         id="path1470-5"
         cx="547"
         cy="384"
         r="13.788582" /><circle
         style="fill:#000000"
         id="path1470-83"
         cx="562"
         cy="452"
         r="13.788582" /><circle
         style="fill:#000000"
         id="path1470-830"
         cx="311"
         cy="827"
         r="13.788582" /><circle
         style="fill:#000000"
         id="path1470-4"
         cx="386"
         cy="1076"
         r="13.788582" /><circle
         style="fill:#000000"
         id="path1470-3"
         cx="851"
         cy="991"
         r="13.788582" /><circle
         style="fill:#000000"
         id="path1470-63"
         cx="1127"
         cy="716"
         r="13.788582" /><circle
         style="fill:#000000"
         id="path1470-54"
         cx="998"
         cy="636"
         r="13.788582" /><circle
         style="fill:#000000"
         id="path1470-2"
         cx="830"
         cy="395"
         r="13.788582" /><circle
         style="fill:#000000"
         id="path1470-50"
         cx="729"
         cy="449"
         r="13.788582" /><circle
         style="fill:#000000"
         id="path1470-99"
         cx="592"
         cy="644"
         r="13.788582" /><circle
         style="fill:#000000"
         id="path1470-82"
         cx="593"
         cy="711"
         r="13.788582" /><circle
         style="fill:#000000"
         id="path1470-65"
         cx="721"
         cy="908"
         r="13.788582" /><circle
         style="fill:#000000"
         id="path1470-92"
         cx="493"
         cy="865"
         r="13.788582" /><circle
         style="fill:#000000"
         id="path1470-21"
         cx="809"
         cy="765"
         r="13.788582" /><circle
         style="fill:#000000"
         id="path1470-94"
         cx="856"
         cy="696"
         r="13.788582" /><circle
         style="fill:#000000"
         id="path1470-87"
         cx="420"
         cy="498"
         r="13.788582" /></g><g
       id="g2654"
       inkscape:label="Verbindungslinien"
       style="display:inline"
       sodipodi:insensitive="true"><path
         style="fill:none;fill-rule:evenodd;stroke:#000000;stroke-width:1px;stroke-linecap:butt;stroke-linejoin:miter;stroke-opacity:1"
         d="M 91.865893,231.02416 296.26941,212.26043"
         id="path1839" /><path
         style="fill:none;fill-rule:evenodd;stroke:#000000;stroke-width:1px;stroke-linecap:butt;stroke-linejoin:miter;stroke-opacity:1"
         d="m 306.53363,224.34554 -13.06726,50.30892"
         id="path1847" /><path
         style="fill:none;fill-rule:evenodd;stroke:#000000;stroke-width:1px;stroke-linecap:butt;stroke-linejoin:miter;stroke-opacity:1"
         d="M 91.470438,235.79142 276.66486,284.49317"
         id="path1849" /><path
         style="fill:none;fill-rule:evenodd;stroke:#000000;stroke-width:1px;stroke-linecap:butt;stroke-linejoin:miter;stroke-opacity:1"
         d="M 322.90241,206.13728 496.09759,140.86272"
         id="path1851" /><path
         style="fill:none;fill-rule:evenodd;stroke:#000000;stroke-width:1px;stroke-linecap:butt;stroke-linejoin:miter;stroke-opacity:1"
         d="M 303.7164,286.59319 471.2836,269.40681"
         id="path1853" /><path
         style="fill:none;fill-rule:evenodd;stroke:#000000;stroke-width:1px;stroke-linecap:butt;stroke-linejoin:miter;stroke-opacity:1"
         d="M 506.53347,149.56594 487.46653,254.43406"
         id="path1855" /><path
         style="fill:none;fill-rule:evenodd;stroke:#000000;stroke-width:1px;stroke-linecap:butt;stroke-linejoin:miter;stroke-opacity:1"
         d="M 481.25017,281.26864 423.74983,484.73136"
         id="path1857" /><path
         style="fill:none;fill-rule:evenodd;stroke:#000000;stroke-width:1px;stroke-linecap:butt;stroke-linejoin:miter;stroke-opacity:1"
         d="M 297.25761,299.72383 412.74239,486.27617"
         id="path1859" /><path
         style="fill:none;fill-rule:evenodd;stroke:#000000;stroke-width:1px;stroke-linecap:butt;stroke-linejoin:miter;stroke-opacity:1"
         d="m 522.62725,133.8986 186.7455,-28.7972"
         id="path1863" /><path
         style="fill:none;fill-rule:evenodd;stroke:#000000;stroke-width:1px;stroke-linecap:butt;stroke-linejoin:miter;stroke-opacity:1"
         d="M 648.67957,233.12818 520.32043,143.87182"
         id="path1865" /><path
         style="fill:none;fill-rule:evenodd;stroke:#000000;stroke-width:1px;stroke-linecap:butt;stroke-linejoin:miter;stroke-opacity:1"
         d="m 717.27375,115.54322 -51.5475,112.91356"
         id="path1867" /><path
         style="fill:none;fill-rule:evenodd;stroke:#000000;stroke-width:1px;stroke-linecap:butt;stroke-linejoin:miter;stroke-opacity:1"
         d="m 491.49962,280.16059 49.00076,91.67882"
         id="path1869" /><path
         style="fill:none;fill-rule:evenodd;stroke:#000000;stroke-width:1px;stroke-linecap:butt;stroke-linejoin:miter;stroke-opacity:1"
         d="M 651.45124,251.81834 555.54876,373.18166"
         id="path1871" /><path
         style="fill:none;fill-rule:evenodd;stroke:#000000;stroke-width:1px;stroke-linecap:butt;stroke-linejoin:miter;stroke-opacity:1"
         d="M 430.26083,488.78949 536.73917,393.21051"
         id="path1873" /><path
         style="fill:none;fill-rule:evenodd;stroke:#000000;stroke-width:1px;stroke-linecap:butt;stroke-linejoin:miter;stroke-opacity:1"
         d="M 724.65858,435.91281 664.34142,254.08719"
         id="path1875" /><path
         style="fill:none;fill-rule:evenodd;stroke:#000000;stroke-width:1px;stroke-linecap:butt;stroke-linejoin:miter;stroke-opacity:1"
         d="m 549.97015,397.46466 9.0597,41.07068"
         id="path1877" /><path
         style="fill:none;fill-rule:evenodd;stroke:#000000;stroke-width:1px;stroke-linecap:butt;stroke-linejoin:miter;stroke-opacity:1"
         d="m 715.2139,449.24765 -139.4278,2.5047"
         id="path1879" /><path
         style="fill:none;fill-rule:evenodd;stroke:#000000;stroke-width:1px;stroke-linecap:butt;stroke-linejoin:miter;stroke-opacity:1"
         d="m 741.15972,442.49877 76.68056,-40.99754"
         id="path1881" /><path
         style="fill:none;fill-rule:evenodd;stroke:#000000;stroke-width:1px;stroke-linecap:butt;stroke-linejoin:miter;stroke-opacity:1"
         d="M 721.07341,460.28237 599.92659,632.71763"
         id="path1883" /><path
         style="fill:none;fill-rule:evenodd;stroke:#000000;stroke-width:1px;stroke-linecap:butt;stroke-linejoin:miter;stroke-opacity:1"
         d="m 564.1286,465.62305 25.7428,164.7539"
         id="path1885" /><path
         style="fill:none;fill-rule:evenodd;stroke:#000000;stroke-width:1px;stroke-linecap:butt;stroke-linejoin:miter;stroke-opacity:1"
         d="M 548.88277,456.24924 433.11723,493.75076"
         id="path1887" /><path
         style="fill:none;fill-rule:evenodd;stroke:#000000;stroke-width:1px;stroke-linecap:butt;stroke-linejoin:miter;stroke-opacity:1"
         d="M 581.48809,635.0771 430.51191,506.9229"
         id="path1889" /><path
         style="fill:none;fill-rule:evenodd;stroke:#000000;stroke-width:1px;stroke-linecap:butt;stroke-linejoin:miter;stroke-opacity:1"
         d="m 727.74409,115.9465 97.51182,266.107"
         id="path1891" /><path
         style="fill:none;fill-rule:evenodd;stroke:#000000;stroke-width:1px;stroke-linecap:butt;stroke-linejoin:miter;stroke-opacity:1"
         d="M 837.88503,406.31126 990.11497,624.68874"
         id="path1893" /><path
         style="fill:none;fill-rule:evenodd;stroke:#000000;stroke-width:1px;stroke-linecap:butt;stroke-linejoin:miter;stroke-opacity:1"
         d="m 592.20577,657.78687 0.58846,39.42626"
         id="path1895" /><path
         style="fill:none;fill-rule:evenodd;stroke:#000000;stroke-width:1px;stroke-linecap:butt;stroke-linejoin:miter;stroke-opacity:1"
         d="m 1009.718,643.26696 105.564,65.46608"
         id="path1897" /><path
         style="fill:none;fill-rule:evenodd;stroke:#000000;stroke-width:1px;stroke-linecap:butt;stroke-linejoin:miter;stroke-opacity:1"
         d="m 868.70107,690.63335 116.59786,-49.2667"
         id="path1899" /><path
         style="fill:none;fill-rule:evenodd;stroke:#000000;stroke-width:1px;stroke-linecap:butt;stroke-linejoin:miter;stroke-opacity:1"
         d="m 869.75118,697.01485 243.49762,17.9703"
         id="path1901" /><path
         style="fill:none;fill-rule:evenodd;stroke:#000000;stroke-width:1px;stroke-linecap:butt;stroke-linejoin:miter;stroke-opacity:1"
         d="m 848.23763,707.39583 -31.47526,46.20834"
         id="path1903" /><path
         style="fill:none;fill-rule:evenodd;stroke:#000000;stroke-width:1px;stroke-linecap:butt;stroke-linejoin:miter;stroke-opacity:1"
         d="M 842.23403,696.78513 606.76597,710.21487"
         id="path1905" /><path
         style="fill:none;fill-rule:evenodd;stroke:#000000;stroke-width:1px;stroke-linecap:butt;stroke-linejoin:miter;stroke-opacity:1"
         d="M 735.30496,461.2624 849.69504,683.7376"
         id="path1907" /><path
         style="fill:none;fill-rule:evenodd;stroke:#000000;stroke-width:1px;stroke-linecap:butt;stroke-linejoin:miter;stroke-opacity:1"
         d="m 422.68999,511.52364 67.62002,339.95272"
         id="path1909" /><path
         style="fill:none;fill-rule:evenodd;stroke:#000000;stroke-width:1px;stroke-linecap:butt;stroke-linejoin:miter;stroke-opacity:1"
         d="M 585.4907,722.56432 500.5093,853.43568"
         id="path1911" /><path
         style="fill:none;fill-rule:evenodd;stroke:#000000;stroke-width:1px;stroke-linecap:butt;stroke-linejoin:miter;stroke-opacity:1"
         d="m 324.49734,829.81813 155.00532,32.36374"
         id="path1913" /><path
         style="fill:none;fill-rule:evenodd;stroke:#000000;stroke-width:1px;stroke-linecap:butt;stroke-linejoin:miter;stroke-opacity:1"
         d="m 314.97667,840.20255 67.04666,222.59495"
         id="path1915" /><path
         style="fill:none;fill-rule:evenodd;stroke:#000000;stroke-width:1px;stroke-linecap:butt;stroke-linejoin:miter;stroke-opacity:1"
         d="M 708.67458,914.1811 398.32542,1069.8189"
         id="path1917" /><path
         style="fill:none;fill-rule:evenodd;stroke:#000000;stroke-width:1px;stroke-linecap:butt;stroke-linejoin:miter;stroke-opacity:1"
         d="m 506.54956,867.5554 200.90088,37.8892"
         id="path1919" /><path
         style="fill:none;fill-rule:evenodd;stroke:#000000;stroke-width:1px;stroke-linecap:butt;stroke-linejoin:miter;stroke-opacity:1"
         d="M 839.37835,983.58002 732.62165,915.41998"
         id="path1921" /><path
         style="fill:none;fill-rule:evenodd;stroke:#000000;stroke-width:1px;stroke-linecap:butt;stroke-linejoin:miter;stroke-opacity:1"
         d="M 801.77346,776.74312 728.22654,896.25688"
         id="path1923" /><path
         style="fill:none;fill-rule:evenodd;stroke:#000000;stroke-width:1px;stroke-linecap:butt;stroke-linejoin:miter;stroke-opacity:1"
         d="m 606.37685,714.34421 189.2463,47.31158"
         id="path1925" /><path
         style="fill:none;fill-rule:evenodd;stroke:#000000;stroke-width:1px;stroke-linecap:butt;stroke-linejoin:miter;stroke-opacity:1"
         d="M 860.76759,981.2678 1117.2324,725.7322"
         id="path1927" /><path
         style="fill:none;fill-rule:evenodd;stroke:#000000;stroke-width:1px;stroke-linecap:butt;stroke-linejoin:miter;stroke-opacity:1"
         d="m 855.76633,709.78636 -4.53266,267.42728"
         id="path1929" /><path
         style="fill:none;fill-rule:evenodd;stroke:#000000;stroke-width:1px;stroke-linecap:butt;stroke-linejoin:miter;stroke-opacity:1"
         d="M 486.7638,877.29754 392.2362,1063.7025"
         id="path1931" /><path
         style="fill:none;fill-rule:evenodd;stroke:#000000;stroke-width:1px;stroke-linecap:butt;stroke-linejoin:miter;stroke-opacity:1"
         d="M 837.43637,993.47937 399.56363,1073.5206"
         id="path1933" /><path
         style="fill:none;fill-rule:evenodd;stroke:#000000;stroke-width:1px;stroke-linecap:butt;stroke-linejoin:miter;stroke-opacity:1"
         d="m 723.23907,116.78626 5.52186,318.42748"
         id="path1935" /><path
         style="fill:none;fill-rule:evenodd;stroke:#000000;stroke-width:1px;stroke-linecap:butt;stroke-linejoin:miter;stroke-opacity:1"
         d="M 740.32148,456.87032 986.67852,628.12968"
         id="path1937" /><path
         style="fill:none;fill-rule:evenodd;stroke:#000000;stroke-width:1px;stroke-linecap:butt;stroke-linejoin:miter;stroke-opacity:1"
         d="m 600.51253,722.56225 112.97494,173.8755"
         id="path1939" /></g></g></g><g
   inkscape:groupmode="layer"
  id="layer6"
  inkscape:label="Trennbalken"
  style="fill:#ffffff"
  inkscape:highlight-color="#000000"
   sodipodi:insensitive="true"><rect
  style="fill:#ffffff;fill-opacity:1;stroke-width:0.407325"
     id="rect1603"
     width="32.106335"
     height="1138.9463"
     x="1333.1403"
     y="48.63208"
     inkscape:label="Balken"
     sodipodi:insensitive="true" /></g><g
   inkscape:groupmode="layer"
   id="g3275"
   inkscape:label="Trennbalken Blau"
   style="display:none;fill:#000000"
   inkscape:highlight-color="#000000"
   sodipodi:insensitive="true"><rect
     style="fill:#0099d1;fill-opacity:1;stroke-width:0.407325"
     id="rect3273"
     width="32.106335"
     height="1138.9463"
     x="1333.1403"
     y="48.63208"
     inkscape:label="Balken"
     sodipodi:insensitive="true" /></g></svg>
